<svg xmlns="http://www.w3.org/2000/svg" xmlns:xlink="http://www.w3.org/1999/xlink" width="400" zoomAndPan="magnify" viewBox="0 0 300 74.999997" height="100" preserveAspectRatio="xMidYMid meet" version="1.0"><defs><g/></defs><g fill="#ffffff" fill-opacity="1"><g transform="translate(40.531243, 52.543145)"><g><path d="M 97.578125 9.09375 C 97.609375 9.113281 97.628906 9.15625 97.640625 9.21875 C 97.660156 9.28125 97.671875 9.328125 97.671875 9.359375 C 97.640625 9.429688 97.601562 9.484375 97.5625 9.515625 C 97.53125 9.554688 97.492188 9.585938 97.453125 9.609375 C 97.273438 9.679688 97.097656 9.707031 96.921875 9.6875 C 96.734375 9.6875 96.5625 9.679688 96.40625 9.671875 C 96.320312 9.648438 96.253906 9.640625 96.203125 9.640625 C 95.347656 9.554688 94.503906 9.460938 93.671875 9.359375 C 91.703125 9.160156 89.742188 8.972656 87.796875 8.796875 C 84.023438 8.453125 80.25 8.140625 76.46875 7.859375 C 71.175781 7.492188 65.867188 7.210938 60.546875 7.015625 C 56.742188 6.878906 52.9375 6.78125 49.125 6.71875 C 48.707031 6.695312 48.285156 6.6875 47.859375 6.6875 C 47.421875 6.6875 46.988281 6.675781 46.5625 6.65625 C 43.976562 6.59375 41.390625 6.5625 38.796875 6.5625 L 38.75 6.5625 C 37.226562 6.5625 35.710938 6.59375 34.203125 6.65625 C 33.640625 6.675781 33.085938 6.6875 32.546875 6.6875 C 31.867188 6.707031 31.175781 6.835938 30.46875 7.078125 C 25.21875 8.921875 19.90625 10.273438 14.53125 11.140625 C 12.976562 11.398438 11.429688 11.613281 9.890625 11.78125 C 8.359375 11.957031 6.816406 12.046875 5.265625 12.046875 C 4.765625 12.046875 4.265625 12.035156 3.765625 12.015625 C 3.003906 12.015625 2.273438 11.914062 1.578125 11.71875 C 1.296875 11.65625 1.03125 11.5625 0.78125 11.4375 C 0.5625 11.363281 0.375 11.25 0.21875 11.09375 C 0.0703125 10.945312 0.0078125 10.738281 0.03125 10.46875 C 0.0703125 10.21875 0.179688 10 0.359375 9.8125 C 0.535156 9.632812 0.738281 9.484375 0.96875 9.359375 C 1.675781 8.960938 2.414062 8.695312 3.1875 8.5625 C 3.570312 8.457031 3.960938 8.363281 4.359375 8.28125 C 5.660156 7.976562 6.972656 7.726562 8.296875 7.53125 C 13.597656 6.75 18.875 6.238281 24.125 6 C 24.445312 5.976562 24.757812 5.957031 25.0625 5.9375 C 26.6875 5.851562 28.304688 5.785156 29.921875 5.734375 C 30.503906 5.710938 31.085938 5.601562 31.671875 5.40625 C 33.679688 4.65625 35.660156 3.816406 37.609375 2.890625 C 39.554688 1.972656 41.457031 0.929688 43.3125 -0.234375 C 44.863281 -1.171875 46.289062 -2.28125 47.59375 -3.5625 C 48.332031 -4.269531 48.929688 -5.066406 49.390625 -5.953125 C 50.015625 -7.234375 49.90625 -8.34375 49.0625 -9.28125 C 48.457031 -9.90625 47.742188 -10.390625 46.921875 -10.734375 C 45.835938 -11.234375 44.707031 -11.632812 43.53125 -11.9375 C 42.363281 -12.238281 41.179688 -12.5 39.984375 -12.71875 C 36.566406 -13.269531 33.085938 -13.609375 29.546875 -13.734375 C 29.421875 -13.734375 29.296875 -13.734375 29.171875 -13.734375 C 29.035156 -13.734375 28.894531 -13.734375 28.75 -13.734375 C 28.445312 -13.691406 28.21875 -13.507812 28.0625 -13.1875 C 27.988281 -13.050781 27.914062 -12.921875 27.84375 -12.796875 C 27.695312 -12.492188 27.539062 -12.191406 27.375 -11.890625 C 26.113281 -9.347656 24.859375 -6.816406 23.609375 -4.296875 C 22.566406 -2.140625 21.515625 0 20.453125 2.125 C 20.429688 2.207031 20.40625 2.273438 20.375 2.328125 C 20.25 2.585938 20.109375 2.835938 19.953125 3.078125 C 19.765625 3.273438 19.550781 3.359375 19.3125 3.328125 C 19.164062 3.335938 19.023438 3.328125 18.890625 3.296875 C 18.648438 3.171875 18.570312 2.976562 18.65625 2.71875 C 18.875 2.15625 19.113281 1.601562 19.375 1.0625 C 20.957031 -2.3125 22.539062 -5.671875 24.125 -9.015625 C 24.644531 -10.078125 25.15625 -11.140625 25.65625 -12.203125 C 25.695312 -12.296875 25.738281 -12.382812 25.78125 -12.46875 C 25.90625 -12.71875 26.015625 -12.957031 26.109375 -13.1875 C 26.242188 -13.550781 26.132812 -13.742188 25.78125 -13.765625 C 25.601562 -13.785156 25.421875 -13.796875 25.234375 -13.796875 C 25.003906 -13.816406 24.773438 -13.832031 24.546875 -13.84375 C 24.503906 -13.84375 24.453125 -13.84375 24.390625 -13.84375 C 24.117188 -13.875 23.859375 -13.921875 23.609375 -13.984375 C 23.367188 -14.054688 23.226562 -14.242188 23.1875 -14.546875 C 23.1875 -14.878906 23.300781 -15.128906 23.53125 -15.296875 C 23.769531 -15.460938 24.03125 -15.597656 24.3125 -15.703125 C 24.40625 -15.734375 24.492188 -15.757812 24.578125 -15.78125 C 25.335938 -16.09375 26.109375 -16.375 26.890625 -16.625 C 26.972656 -16.664062 27.066406 -16.691406 27.171875 -16.703125 C 27.765625 -16.890625 28.210938 -17.273438 28.515625 -17.859375 C 29.859375 -20.398438 31.203125 -22.9375 32.546875 -25.46875 C 33.003906 -26.34375 33.476562 -27.234375 33.96875 -28.140625 C 34.03125 -28.265625 34.085938 -28.382812 34.140625 -28.5 C 34.253906 -28.757812 34.394531 -29.015625 34.5625 -29.265625 C 34.757812 -29.554688 35.019531 -29.671875 35.34375 -29.609375 C 35.488281 -29.628906 35.628906 -29.625 35.765625 -29.59375 C 36.066406 -29.445312 36.160156 -29.210938 36.046875 -28.890625 C 36.046875 -28.867188 36.035156 -28.859375 36.015625 -28.859375 C 35.785156 -28.179688 35.507812 -27.519531 35.1875 -26.875 C 34.40625 -25.332031 33.601562 -23.789062 32.78125 -22.25 C 32.53125 -21.726562 32.265625 -21.207031 31.984375 -20.6875 C 31.835938 -20.425781 31.695312 -20.164062 31.5625 -19.90625 C 31.320312 -19.457031 31.085938 -19.003906 30.859375 -18.546875 C 30.859375 -18.546875 30.847656 -18.535156 30.828125 -18.515625 C 30.796875 -18.441406 30.765625 -18.363281 30.734375 -18.28125 C 30.710938 -18.195312 30.753906 -18.140625 30.859375 -18.109375 C 30.921875 -18.078125 30.984375 -18.050781 31.046875 -18.03125 L 31.109375 -18.0625 C 31.222656 -18.09375 31.351562 -18.125 31.5 -18.15625 C 31.539062 -18.175781 31.578125 -18.195312 31.609375 -18.21875 C 36.003906 -19.601562 40.394531 -21.035156 44.78125 -22.515625 C 49.164062 -24.003906 53.519531 -25.597656 57.84375 -27.296875 C 57.945312 -27.335938 58.039062 -27.367188 58.125 -27.390625 C 59.445312 -27.929688 60.765625 -28.476562 62.078125 -29.03125 C 63.390625 -29.582031 64.6875 -30.175781 65.96875 -30.8125 C 66.925781 -31.28125 67.828125 -31.832031 68.671875 -32.46875 C 70.472656 -33.9375 70.550781 -35.25 68.90625 -36.40625 C 68.132812 -36.9375 67.289062 -37.335938 66.375 -37.609375 C 65.457031 -37.890625 64.519531 -38.09375 63.5625 -38.21875 C 61.269531 -38.5625 58.953125 -38.734375 56.609375 -38.734375 L 56.578125 -38.734375 C 54.316406 -38.710938 52.03125 -38.601562 49.71875 -38.40625 C 44.613281 -37.957031 39.507812 -37.09375 34.40625 -35.8125 C 29.71875 -34.65625 25.117188 -33.070312 20.609375 -31.0625 C 19.421875 -30.539062 18.265625 -29.945312 17.140625 -29.28125 C 16.828125 -29.082031 16.507812 -28.898438 16.1875 -28.734375 C 16.007812 -28.660156 15.835938 -28.644531 15.671875 -28.6875 C 15.453125 -28.644531 15.273438 -28.703125 15.140625 -28.859375 C 15.035156 -29.003906 15.03125 -29.132812 15.125 -29.25 C 15.21875 -29.375 15.332031 -29.476562 15.46875 -29.5625 C 16.425781 -30.238281 17.425781 -30.804688 18.46875 -31.265625 C 18.488281 -31.265625 18.507812 -31.273438 18.53125 -31.296875 C 22.78125 -33.296875 27.128906 -34.898438 31.578125 -36.109375 C 37.992188 -37.878906 44.441406 -38.984375 50.921875 -39.421875 C 52.929688 -39.566406 54.929688 -39.640625 56.921875 -39.640625 C 59.078125 -39.648438 61.21875 -39.539062 63.34375 -39.3125 C 65.34375 -39.101562 67.25 -38.632812 69.0625 -37.90625 C 69.90625 -37.59375 70.640625 -37.117188 71.265625 -36.484375 C 71.773438 -35.910156 72 -35.285156 71.9375 -34.609375 C 71.882812 -33.929688 71.554688 -33.257812 70.953125 -32.59375 C 70.191406 -31.832031 69.34375 -31.195312 68.40625 -30.6875 C 67.257812 -30.050781 66.09375 -29.472656 64.90625 -28.953125 C 63.726562 -28.429688 62.535156 -27.929688 61.328125 -27.453125 C 61.296875 -27.429688 61.25 -27.410156 61.1875 -27.390625 C 56.988281 -25.660156 52.757812 -24.0625 48.5 -22.59375 C 44.238281 -21.125 39.960938 -19.703125 35.671875 -18.328125 C 34.953125 -18.097656 34.234375 -17.859375 33.515625 -17.609375 C 32.503906 -17.273438 31.5 -16.945312 30.5 -16.625 C 30.0625 -16.519531 29.710938 -16.28125 29.453125 -15.90625 C 29.234375 -15.539062 29.132812 -15.253906 29.15625 -15.046875 C 29.1875 -14.847656 29.414062 -14.738281 29.84375 -14.71875 C 30.988281 -14.6875 32.128906 -14.628906 33.265625 -14.546875 C 33.347656 -14.546875 33.421875 -14.546875 33.484375 -14.546875 C 35.640625 -14.410156 37.769531 -14.179688 39.875 -13.859375 C 41.988281 -13.535156 44.046875 -13.0625 46.046875 -12.4375 C 46.910156 -12.15625 47.742188 -11.835938 48.546875 -11.484375 C 49.085938 -11.234375 49.597656 -10.929688 50.078125 -10.578125 C 52.148438 -8.972656 52.300781 -6.957031 50.53125 -4.53125 C 49.945312 -3.726562 49.273438 -3 48.515625 -2.34375 C 46.648438 -0.738281 44.644531 0.644531 42.5 1.8125 C 40.65625 2.832031 38.78125 3.78125 36.875 4.65625 C 36.65625 4.726562 36.425781 4.828125 36.1875 4.953125 C 36.070312 5.003906 35.941406 5.0625 35.796875 5.125 C 35.910156 5.3125 36.015625 5.421875 36.109375 5.453125 C 36.210938 5.492188 36.332031 5.503906 36.46875 5.484375 C 36.46875 5.484375 36.472656 5.484375 36.484375 5.484375 C 36.828125 5.503906 37.15625 5.515625 37.46875 5.515625 L 37.515625 5.515625 C 37.734375 5.515625 37.953125 5.503906 38.171875 5.484375 C 39.171875 5.484375 40.175781 5.484375 41.1875 5.484375 C 47.132812 5.503906 53.054688 5.632812 58.953125 5.875 C 65.367188 6.09375 71.757812 6.488281 78.125 7.0625 C 80.144531 7.226562 82.164062 7.40625 84.1875 7.59375 C 86.632812 7.789062 89.070312 8 91.5 8.21875 C 92.925781 8.363281 94.34375 8.535156 95.75 8.734375 C 96.082031 8.773438 96.429688 8.816406 96.796875 8.859375 C 97.054688 8.898438 97.316406 8.976562 97.578125 9.09375 Z M 26.859375 -14.9375 C 26.898438 -14.957031 26.941406 -15 26.984375 -15.0625 C 27.023438 -15.125 27.054688 -15.171875 27.078125 -15.203125 C 27.078125 -15.242188 27.066406 -15.273438 27.046875 -15.296875 C 27.023438 -15.316406 26.992188 -15.347656 26.953125 -15.390625 C 26.953125 -15.390625 26.941406 -15.398438 26.921875 -15.421875 C 26.703125 -15.378906 26.5 -15.269531 26.3125 -15.09375 C 26.28125 -15.050781 26.269531 -15.003906 26.28125 -14.953125 C 26.289062 -14.898438 26.328125 -14.875 26.390625 -14.875 C 26.546875 -14.875 26.703125 -14.894531 26.859375 -14.9375 Z M 25.359375 7.5 C 25.398438 7.476562 25.441406 7.46875 25.484375 7.46875 C 25.554688 7.445312 25.632812 7.410156 25.71875 7.359375 C 25.800781 7.304688 25.859375 7.234375 25.890625 7.140625 C 25.859375 7.054688 25.820312 7.003906 25.78125 6.984375 C 25.757812 6.984375 25.738281 6.984375 25.71875 6.984375 C 20.863281 7.203125 16 7.613281 11.125 8.21875 C 8.71875 8.5 6.320312 8.953125 3.9375 9.578125 C 3.882812 9.597656 3.828125 9.617188 3.765625 9.640625 C 3.335938 9.722656 2.957031 9.890625 2.625 10.140625 C 2.539062 10.203125 2.488281 10.269531 2.46875 10.34375 C 2.445312 10.425781 2.484375 10.5 2.578125 10.5625 C 2.785156 10.644531 3.003906 10.71875 3.234375 10.78125 C 4.003906 10.925781 4.789062 11 5.59375 11 C 6.28125 11 6.960938 10.960938 7.640625 10.890625 C 13.578125 10.390625 19.484375 9.257812 25.359375 7.5 Z M 25.359375 7.5 "/></g></g></g><g fill="#ffffff" fill-opacity="1"><g transform="translate(94.787346, 52.543145)"><g><path d="M 11.109375 -6.375 C 10.941406 -6.226562 10.765625 -6.09375 10.578125 -5.96875 C 9.992188 -5.601562 9.46875 -5.316406 9 -5.109375 C 8.53125 -4.898438 7.976562 -4.6875 7.34375 -4.46875 C 6.394531 -4.1875 5.785156 -4.25 5.515625 -4.65625 C 5.242188 -5.070312 5.203125 -5.644531 5.390625 -6.375 C 5.640625 -7.414062 5.785156 -8.175781 5.828125 -8.65625 C 5.867188 -9.132812 5.707031 -9.296875 5.34375 -9.140625 C 4.988281 -8.992188 4.335938 -8.5 3.390625 -7.65625 C 2.066406 -6.519531 0.9375 -5.21875 0 -3.75 C -0.113281 -3.550781 -0.257812 -3.382812 -0.4375 -3.25 C -0.613281 -3.125 -0.828125 -3.0625 -1.078125 -3.0625 C -1.328125 -3.0625 -1.503906 -3.125 -1.609375 -3.25 C -1.722656 -3.382812 -1.726562 -3.5625 -1.625 -3.78125 C -1.09375 -4.957031 -0.539062 -6.128906 0.03125 -7.296875 C 1 -9.328125 1.953125 -11.34375 2.890625 -13.34375 C 3.585938 -14.84375 4.28125 -16.347656 4.96875 -17.859375 C 5.382812 -18.742188 5.789062 -19.628906 6.1875 -20.515625 C 6.226562 -20.585938 6.269531 -20.660156 6.3125 -20.734375 C 6.351562 -20.835938 6.394531 -20.9375 6.4375 -21.03125 C 6.488281 -21.132812 6.550781 -21.25 6.625 -21.375 C 6.675781 -21.46875 6.773438 -21.546875 6.921875 -21.609375 C 7.078125 -21.679688 7.226562 -21.722656 7.375 -21.734375 C 7.53125 -21.753906 7.644531 -21.75 7.71875 -21.71875 C 7.84375 -21.632812 7.910156 -21.546875 7.921875 -21.453125 C 7.929688 -21.359375 7.914062 -21.265625 7.875 -21.171875 C 7.851562 -21.148438 7.84375 -21.113281 7.84375 -21.0625 C 7.664062 -20.53125 7.476562 -20.015625 7.28125 -19.515625 C 6.113281 -16.722656 4.847656 -13.972656 3.484375 -11.265625 C 3.390625 -11.085938 3.269531 -10.867188 3.125 -10.609375 C 2.925781 -10.242188 2.738281 -9.882812 2.5625 -9.53125 C 2.394531 -9.1875 2.335938 -8.953125 2.390625 -8.828125 C 2.453125 -8.710938 2.726562 -8.804688 3.21875 -9.109375 C 3.363281 -9.203125 3.492188 -9.300781 3.609375 -9.40625 C 3.992188 -9.664062 4.375 -9.90625 4.75 -10.125 C 5.070312 -10.34375 5.4375 -10.460938 5.84375 -10.484375 C 6.800781 -10.546875 7.335938 -10.113281 7.453125 -9.1875 C 7.492188 -8.8125 7.476562 -8.441406 7.40625 -8.078125 C 7.332031 -7.710938 7.25 -7.351562 7.15625 -7 C 7.132812 -6.894531 7.113281 -6.796875 7.09375 -6.703125 C 6.925781 -6.078125 6.96875 -5.71875 7.21875 -5.625 C 7.476562 -5.539062 7.832031 -5.59375 8.28125 -5.78125 C 8.726562 -5.976562 9.1875 -6.210938 9.65625 -6.484375 C 9.96875 -6.648438 10.242188 -6.789062 10.484375 -6.90625 C 10.734375 -7.019531 10.914062 -7.070312 11.03125 -7.0625 C 11.25 -7.019531 11.347656 -6.925781 11.328125 -6.78125 C 11.316406 -6.644531 11.242188 -6.507812 11.109375 -6.375 Z M 11.109375 -6.375 "/></g></g></g><g fill="#ffffff" fill-opacity="1"><g transform="translate(105.217536, 52.543145)"><g><path d="M 9.90625 -6.96875 C 10.125 -6.84375 10.144531 -6.546875 9.96875 -6.078125 C 9.707031 -5.722656 9.425781 -5.394531 9.125 -5.09375 C 8.820312 -4.800781 8.492188 -4.535156 8.140625 -4.296875 C 8.109375 -4.296875 8.09375 -4.285156 8.09375 -4.265625 C 7.851562 -4.097656 7.601562 -3.957031 7.34375 -3.84375 C 5.164062 -3.0625 4.050781 -3.519531 4 -5.21875 C 3.125 -4.457031 2.535156 -3.988281 2.234375 -3.8125 C 1.515625 -3.382812 0.734375 -3.191406 -0.109375 -3.234375 C -0.734375 -3.273438 -1.15625 -3.46875 -1.375 -3.8125 C -1.59375 -4.15625 -1.570312 -4.617188 -1.3125 -5.203125 C -0.914062 -6.117188 -0.347656 -6.9375 0.390625 -7.65625 C 1.265625 -8.457031 2.226562 -9.097656 3.28125 -9.578125 C 3.84375 -9.867188 4.4375 -9.976562 5.0625 -9.90625 C 5.675781 -9.875 6.050781 -9.523438 6.1875 -8.859375 C 6.238281 -8.660156 6.1875 -8.484375 6.03125 -8.328125 C 5.832031 -8.140625 5.597656 -8.097656 5.328125 -8.203125 C 5.316406 -8.203125 5.289062 -8.207031 5.25 -8.21875 C 5.21875 -8.226562 5.195312 -8.242188 5.1875 -8.265625 C 4.914062 -8.628906 4.644531 -8.78125 4.375 -8.71875 C 4.113281 -8.65625 3.832031 -8.535156 3.53125 -8.359375 C 2.125 -7.535156 1.078125 -6.390625 0.390625 -4.921875 C 0.359375 -4.859375 0.335938 -4.785156 0.328125 -4.703125 C 0.316406 -4.628906 0.335938 -4.570312 0.390625 -4.53125 C 0.554688 -4.46875 0.738281 -4.472656 0.9375 -4.546875 C 1.144531 -4.628906 1.347656 -4.742188 1.546875 -4.890625 C 1.742188 -5.046875 1.910156 -5.175781 2.046875 -5.28125 C 2.066406 -5.300781 2.078125 -5.3125 2.078125 -5.3125 C 2.742188 -5.875 3.394531 -6.445312 4.03125 -7.03125 C 4.3125 -7.332031 4.664062 -7.5 5.09375 -7.53125 C 5.6875 -7.53125 5.9375 -7.265625 5.84375 -6.734375 C 5.78125 -6.523438 5.71875 -6.320312 5.65625 -6.125 C 5.425781 -5.257812 5.421875 -4.75 5.640625 -4.59375 C 5.859375 -4.445312 6.191406 -4.445312 6.640625 -4.59375 C 7.085938 -4.75 7.535156 -5.035156 7.984375 -5.453125 C 8.441406 -5.878906 8.820312 -6.269531 9.125 -6.625 C 9.4375 -6.976562 9.695312 -7.09375 9.90625 -6.96875 Z M 9.90625 -6.96875 "/></g></g></g><g fill="#ffffff" fill-opacity="1"><g transform="translate(114.28073, 52.543145)"><g><path d="M 6.5625 -8.390625 C 6.476562 -7.765625 6.179688 -7.351562 5.671875 -7.15625 C 5.160156 -6.96875 4.992188 -7.21875 5.171875 -7.90625 C 5.347656 -8.601562 5.035156 -8.78125 4.234375 -8.4375 C 3.429688 -8.101562 2.769531 -7.675781 2.25 -7.15625 C 1.445312 -6.332031 0.738281 -5.445312 0.125 -4.5 C 0.0625 -4.414062 0.0078125 -4.347656 -0.03125 -4.296875 C -0.207031 -4.023438 -0.390625 -3.773438 -0.578125 -3.546875 C -0.691406 -3.378906 -0.828125 -3.273438 -0.984375 -3.234375 C -1.148438 -3.191406 -1.316406 -3.1875 -1.484375 -3.21875 C -1.628906 -3.226562 -1.742188 -3.285156 -1.828125 -3.390625 C -1.910156 -3.492188 -1.921875 -3.613281 -1.859375 -3.75 C -1.753906 -3.988281 -1.632812 -4.238281 -1.5 -4.5 C -0.6875 -6.019531 0.144531 -7.546875 1 -9.078125 C 1.019531 -9.097656 1.03125 -9.117188 1.03125 -9.140625 C 1.144531 -9.367188 1.285156 -9.585938 1.453125 -9.796875 C 1.628906 -9.992188 1.835938 -10.070312 2.078125 -10.03125 C 2.316406 -10 2.476562 -9.859375 2.5625 -9.609375 C 2.65625 -9.296875 2.738281 -9.117188 2.8125 -9.078125 C 2.882812 -9.035156 3.050781 -9.0625 3.3125 -9.15625 C 3.851562 -9.363281 4.382812 -9.503906 4.90625 -9.578125 C 5.425781 -9.660156 5.851562 -9.640625 6.1875 -9.515625 C 6.519531 -9.398438 6.644531 -9.023438 6.5625 -8.390625 Z M 6.5625 -8.390625 "/></g></g></g><g fill="#ffffff" fill-opacity="1"><g transform="translate(121.115713, 52.543145)"><g><path d="M 9.90625 -6.96875 C 10.125 -6.84375 10.144531 -6.546875 9.96875 -6.078125 C 9.707031 -5.722656 9.425781 -5.394531 9.125 -5.09375 C 8.820312 -4.800781 8.492188 -4.535156 8.140625 -4.296875 C 8.109375 -4.296875 8.09375 -4.285156 8.09375 -4.265625 C 7.851562 -4.097656 7.601562 -3.957031 7.34375 -3.84375 C 5.164062 -3.0625 4.050781 -3.519531 4 -5.21875 C 3.125 -4.457031 2.535156 -3.988281 2.234375 -3.8125 C 1.515625 -3.382812 0.734375 -3.191406 -0.109375 -3.234375 C -0.734375 -3.273438 -1.15625 -3.46875 -1.375 -3.8125 C -1.59375 -4.15625 -1.570312 -4.617188 -1.3125 -5.203125 C -0.914062 -6.117188 -0.347656 -6.9375 0.390625 -7.65625 C 1.265625 -8.457031 2.226562 -9.097656 3.28125 -9.578125 C 3.84375 -9.867188 4.4375 -9.976562 5.0625 -9.90625 C 5.675781 -9.875 6.050781 -9.523438 6.1875 -8.859375 C 6.238281 -8.660156 6.1875 -8.484375 6.03125 -8.328125 C 5.832031 -8.140625 5.597656 -8.097656 5.328125 -8.203125 C 5.316406 -8.203125 5.289062 -8.207031 5.25 -8.21875 C 5.21875 -8.226562 5.195312 -8.242188 5.1875 -8.265625 C 4.914062 -8.628906 4.644531 -8.78125 4.375 -8.71875 C 4.113281 -8.65625 3.832031 -8.535156 3.53125 -8.359375 C 2.125 -7.535156 1.078125 -6.390625 0.390625 -4.921875 C 0.359375 -4.859375 0.335938 -4.785156 0.328125 -4.703125 C 0.316406 -4.628906 0.335938 -4.570312 0.390625 -4.53125 C 0.554688 -4.46875 0.738281 -4.472656 0.9375 -4.546875 C 1.144531 -4.628906 1.347656 -4.742188 1.546875 -4.890625 C 1.742188 -5.046875 1.910156 -5.175781 2.046875 -5.28125 C 2.066406 -5.300781 2.078125 -5.3125 2.078125 -5.3125 C 2.742188 -5.875 3.394531 -6.445312 4.03125 -7.03125 C 4.3125 -7.332031 4.664062 -7.5 5.09375 -7.53125 C 5.6875 -7.53125 5.9375 -7.265625 5.84375 -6.734375 C 5.78125 -6.523438 5.71875 -6.320312 5.65625 -6.125 C 5.425781 -5.257812 5.421875 -4.75 5.640625 -4.59375 C 5.859375 -4.445312 6.191406 -4.445312 6.640625 -4.59375 C 7.085938 -4.75 7.535156 -5.035156 7.984375 -5.453125 C 8.441406 -5.878906 8.820312 -6.269531 9.125 -6.625 C 9.4375 -6.976562 9.695312 -7.09375 9.90625 -6.96875 Z M 9.90625 -6.96875 "/></g></g></g><g fill="#ffffff" fill-opacity="1"><g transform="translate(130.178907, 52.543145)"><g><path d="M 8.546875 -6.609375 C 7.328125 -5.160156 6.128906 -4.09375 4.953125 -3.40625 C 3.785156 -2.726562 2.53125 -2.503906 1.1875 -2.734375 C -0.144531 -2.972656 -0.691406 -3.867188 -0.453125 -5.421875 C -0.285156 -6.210938 -0.0625 -6.976562 0.21875 -7.71875 C 0.914062 -9.46875 1.628906 -11.203125 2.359375 -12.921875 C 2.585938 -13.535156 2.835938 -14.160156 3.109375 -14.796875 C 3.171875 -14.929688 3.226562 -15.066406 3.28125 -15.203125 C 3.382812 -15.429688 3.484375 -15.664062 3.578125 -15.90625 C 3.722656 -16.300781 3.566406 -16.507812 3.109375 -16.53125 C 2.835938 -16.53125 2.578125 -16.53125 2.328125 -16.53125 C 2.203125 -16.53125 2.066406 -16.53125 1.921875 -16.53125 C 1.785156 -16.507812 1.644531 -16.488281 1.5 -16.46875 C 1.269531 -16.457031 1.035156 -16.453125 0.796875 -16.453125 C 0.566406 -16.453125 0.351562 -16.507812 0.15625 -16.625 C 0.09375 -16.644531 0.046875 -16.675781 0.015625 -16.71875 C -0.015625 -16.769531 -0.03125 -16.832031 -0.03125 -16.90625 C -0.0078125 -16.9375 0.0195312 -16.976562 0.0625 -17.03125 C 0.101562 -17.082031 0.15625 -17.113281 0.21875 -17.125 C 0.414062 -17.207031 0.625 -17.269531 0.84375 -17.3125 C 1.414062 -17.332031 1.976562 -17.351562 2.53125 -17.375 C 2.75 -17.375 2.941406 -17.375 3.109375 -17.375 C 3.472656 -17.375 3.742188 -17.382812 3.921875 -17.40625 C 4.097656 -17.4375 4.238281 -17.535156 4.34375 -17.703125 C 4.457031 -17.867188 4.585938 -18.117188 4.734375 -18.453125 C 4.816406 -18.640625 4.914062 -18.84375 5.03125 -19.0625 C 5.332031 -19.695312 5.632812 -20.347656 5.9375 -21.015625 C 6.070312 -21.316406 6.210938 -21.609375 6.359375 -21.890625 C 6.472656 -22.171875 6.660156 -22.390625 6.921875 -22.546875 C 7.160156 -22.660156 7.375 -22.648438 7.5625 -22.515625 C 7.613281 -22.484375 7.65625 -22.425781 7.6875 -22.34375 C 7.71875 -22.257812 7.734375 -22.1875 7.734375 -22.125 C 7.734375 -21.769531 7.644531 -21.414062 7.46875 -21.0625 C 7.425781 -20.988281 7.382812 -20.90625 7.34375 -20.8125 C 7.226562 -20.476562 7.097656 -20.144531 6.953125 -19.8125 C 6.691406 -19.1875 6.441406 -18.550781 6.203125 -17.90625 C 6.140625 -17.789062 6.140625 -17.6875 6.203125 -17.59375 C 6.265625 -17.5 6.351562 -17.453125 6.46875 -17.453125 C 7.113281 -17.441406 7.75 -17.4375 8.375 -17.4375 C 8.6875 -17.4375 9.003906 -17.4375 9.328125 -17.4375 C 10.328125 -17.414062 10.726562 -17.273438 10.53125 -17.015625 C 10.394531 -16.859375 10.242188 -16.765625 10.078125 -16.734375 C 9.921875 -16.710938 9.757812 -16.71875 9.59375 -16.75 C 9.5 -16.75 9.398438 -16.75 9.296875 -16.75 C 8.273438 -16.6875 7.265625 -16.644531 6.265625 -16.625 C 5.796875 -16.625 5.484375 -16.414062 5.328125 -16 C 5.171875 -15.59375 5.015625 -15.191406 4.859375 -14.796875 C 4.628906 -14.265625 4.414062 -13.75 4.21875 -13.25 C 4.007812 -12.769531 3.804688 -12.289062 3.609375 -11.8125 C 3.085938 -10.59375 2.585938 -9.367188 2.109375 -8.140625 C 1.804688 -7.335938 1.566406 -6.515625 1.390625 -5.671875 C 1.015625 -4.148438 1.601562 -3.566406 3.15625 -3.921875 C 4.6875 -4.285156 6.289062 -5.390625 7.96875 -7.234375 C 8.695312 -7.703125 8.890625 -7.492188 8.546875 -6.609375 Z M 8.546875 -6.609375 "/></g></g></g><g fill="#ffffff" fill-opacity="1"><g transform="translate(137.943448, 52.543145)"><g><path d="M 11.109375 -6.375 C 10.941406 -6.226562 10.765625 -6.09375 10.578125 -5.96875 C 9.992188 -5.601562 9.46875 -5.316406 9 -5.109375 C 8.53125 -4.898438 7.976562 -4.6875 7.34375 -4.46875 C 6.394531 -4.1875 5.785156 -4.25 5.515625 -4.65625 C 5.242188 -5.070312 5.203125 -5.644531 5.390625 -6.375 C 5.640625 -7.414062 5.785156 -8.175781 5.828125 -8.65625 C 5.867188 -9.132812 5.707031 -9.296875 5.34375 -9.140625 C 4.988281 -8.992188 4.335938 -8.5 3.390625 -7.65625 C 2.066406 -6.519531 0.9375 -5.21875 0 -3.75 C -0.113281 -3.550781 -0.257812 -3.382812 -0.4375 -3.25 C -0.613281 -3.125 -0.828125 -3.0625 -1.078125 -3.0625 C -1.328125 -3.0625 -1.503906 -3.125 -1.609375 -3.25 C -1.722656 -3.382812 -1.726562 -3.5625 -1.625 -3.78125 C -1.09375 -4.957031 -0.539062 -6.128906 0.03125 -7.296875 C 1 -9.328125 1.953125 -11.34375 2.890625 -13.34375 C 3.585938 -14.84375 4.28125 -16.347656 4.96875 -17.859375 C 5.382812 -18.742188 5.789062 -19.628906 6.1875 -20.515625 C 6.226562 -20.585938 6.269531 -20.660156 6.3125 -20.734375 C 6.351562 -20.835938 6.394531 -20.9375 6.4375 -21.03125 C 6.488281 -21.132812 6.550781 -21.25 6.625 -21.375 C 6.675781 -21.46875 6.773438 -21.546875 6.921875 -21.609375 C 7.078125 -21.679688 7.226562 -21.722656 7.375 -21.734375 C 7.53125 -21.753906 7.644531 -21.75 7.71875 -21.71875 C 7.84375 -21.632812 7.910156 -21.546875 7.921875 -21.453125 C 7.929688 -21.359375 7.914062 -21.265625 7.875 -21.171875 C 7.851562 -21.148438 7.84375 -21.113281 7.84375 -21.0625 C 7.664062 -20.53125 7.476562 -20.015625 7.28125 -19.515625 C 6.113281 -16.722656 4.847656 -13.972656 3.484375 -11.265625 C 3.390625 -11.085938 3.269531 -10.867188 3.125 -10.609375 C 2.925781 -10.242188 2.738281 -9.882812 2.5625 -9.53125 C 2.394531 -9.1875 2.335938 -8.953125 2.390625 -8.828125 C 2.453125 -8.710938 2.726562 -8.804688 3.21875 -9.109375 C 3.363281 -9.203125 3.492188 -9.300781 3.609375 -9.40625 C 3.992188 -9.664062 4.375 -9.90625 4.75 -10.125 C 5.070312 -10.34375 5.4375 -10.460938 5.84375 -10.484375 C 6.800781 -10.546875 7.335938 -10.113281 7.453125 -9.1875 C 7.492188 -8.8125 7.476562 -8.441406 7.40625 -8.078125 C 7.332031 -7.710938 7.25 -7.351562 7.15625 -7 C 7.132812 -6.894531 7.113281 -6.796875 7.09375 -6.703125 C 6.925781 -6.078125 6.96875 -5.71875 7.21875 -5.625 C 7.476562 -5.539062 7.832031 -5.59375 8.28125 -5.78125 C 8.726562 -5.976562 9.1875 -6.210938 9.65625 -6.484375 C 9.96875 -6.648438 10.242188 -6.789062 10.484375 -6.90625 C 10.734375 -7.019531 10.914062 -7.070312 11.03125 -7.0625 C 11.25 -7.019531 11.347656 -6.925781 11.328125 -6.78125 C 11.316406 -6.644531 11.242188 -6.507812 11.109375 -6.375 Z M 11.109375 -6.375 "/></g></g></g><g fill="#ffffff" fill-opacity="1"><g transform="translate(148.373638, 52.543145)"><g/></g></g><g fill="#ffffff" fill-opacity="1"><g transform="translate(158.708132, 52.543145)"><g><path d="M 73.890625 -12.5 C 72.148438 -12.695312 70.398438 -12.796875 68.640625 -12.796875 C 67.859375 -12.828125 67.066406 -12.847656 66.265625 -12.859375 C 58.960938 -13.160156 51.644531 -13.238281 44.3125 -13.09375 C 43.945312 -13.09375 43.644531 -13.09375 43.40625 -13.09375 C 43.007812 -13.125 42.71875 -13.125 42.53125 -13.09375 C 42.351562 -13.0625 42.207031 -12.957031 42.09375 -12.78125 C 41.988281 -12.613281 41.863281 -12.34375 41.71875 -11.96875 C 41.613281 -11.75 41.492188 -11.472656 41.359375 -11.140625 C 40.140625 -8.484375 39.019531 -5.773438 38 -3.015625 C 37.332031 -1.242188 36.816406 0.578125 36.453125 2.453125 C 36.316406 3.035156 36.269531 3.601562 36.3125 4.15625 C 36.351562 4.707031 36.597656 5.203125 37.046875 5.640625 C 37.109375 5.679688 37.128906 5.734375 37.109375 5.796875 C 37.097656 5.867188 37.0625 5.929688 37 5.984375 C 36.9375 6.046875 36.867188 6.085938 36.796875 6.109375 C 35.710938 6.273438 35.0625 5.890625 34.84375 4.953125 C 34.707031 4.421875 34.679688 3.878906 34.765625 3.328125 C 34.765625 3.273438 34.765625 3.242188 34.765625 3.234375 C 34.847656 2.273438 35.019531 1.320312 35.28125 0.375 C 35.539062 -0.570312 35.832031 -1.519531 36.15625 -2.46875 C 37.175781 -5.3125 38.304688 -8.117188 39.546875 -10.890625 C 39.617188 -11.003906 39.671875 -11.117188 39.703125 -11.234375 C 39.765625 -11.367188 39.832031 -11.507812 39.90625 -11.65625 C 40.007812 -11.863281 40.101562 -12.066406 40.1875 -12.265625 C 40.269531 -12.460938 40.300781 -12.671875 40.28125 -12.890625 C 40.175781 -12.972656 40.070312 -13.023438 39.96875 -13.046875 C 39.875 -13.066406 39.773438 -13.066406 39.671875 -13.046875 C 39.660156 -13.046875 39.640625 -13.046875 39.609375 -13.046875 C 38.753906 -13.046875 37.894531 -13.035156 37.03125 -13.015625 C 36.789062 -13.015625 36.535156 -13.015625 36.265625 -13.015625 C 35.953125 -12.992188 35.6875 -12.890625 35.46875 -12.703125 C 35.25 -12.523438 35.039062 -12.304688 34.84375 -12.046875 C 34.570312 -11.710938 34.304688 -11.375 34.046875 -11.03125 C 32.921875 -9.601562 31.789062 -8.1875 30.65625 -6.78125 C 28.96875 -4.738281 27.203125 -2.769531 25.359375 -0.875 C 23.523438 1.019531 21.582031 2.796875 19.53125 4.453125 C 16.9375 6.585938 14.1875 8.46875 11.28125 10.09375 C 6.832031 12.476562 2.171875 13.609375 -2.703125 13.484375 C -7.296875 13.378906 -11.441406 12.140625 -15.140625 9.765625 C -16.171875 9.097656 -17.085938 8.296875 -17.890625 7.359375 C -18.429688 6.691406 -18.859375 5.972656 -19.171875 5.203125 C -19.484375 4.429688 -19.640625 3.59375 -19.640625 2.6875 C -19.597656 1.601562 -19.347656 0.601562 -18.890625 -0.3125 C -18.441406 -1.238281 -17.816406 -2.082031 -17.015625 -2.84375 C -15.921875 -3.90625 -14.710938 -4.804688 -13.390625 -5.546875 C -12.097656 -6.296875 -10.769531 -6.953125 -9.40625 -7.515625 C -8.050781 -8.078125 -6.679688 -8.578125 -5.296875 -9.015625 C -3.046875 -9.734375 -0.78125 -10.335938 1.5 -10.828125 C 3.789062 -11.316406 6.085938 -11.738281 8.390625 -12.09375 C 13.859375 -12.84375 19.34375 -13.34375 24.84375 -13.59375 C 27.644531 -13.757812 30.441406 -13.84375 33.234375 -13.84375 C 34.003906 -13.832031 34.597656 -14.160156 35.015625 -14.828125 C 35.753906 -15.859375 36.5 -16.898438 37.25 -17.953125 C 38.40625 -19.554688 39.539062 -21.1875 40.65625 -22.84375 C 45.875 -30.625 50.867188 -38.535156 55.640625 -46.578125 C 56.046875 -47.265625 56.441406 -47.957031 56.828125 -48.65625 C 57.003906 -49.007812 57.191406 -49.367188 57.390625 -49.734375 C 57.628906 -50.203125 58.007812 -50.460938 58.53125 -50.515625 C 58.8125 -50.515625 59.015625 -50.4375 59.140625 -50.28125 C 59.273438 -50.125 59.296875 -49.910156 59.203125 -49.640625 C 59.097656 -49.421875 58.984375 -49.210938 58.859375 -49.015625 C 58.085938 -47.628906 57.398438 -46.222656 56.796875 -44.796875 C 56.566406 -44.296875 56.34375 -43.804688 56.125 -43.328125 C 54.019531 -38.765625 51.90625 -34.191406 49.78125 -29.609375 C 48.15625 -26.085938 46.519531 -22.550781 44.875 -19 C 44.394531 -17.957031 43.925781 -16.914062 43.46875 -15.875 C 43.363281 -15.65625 43.257812 -15.445312 43.15625 -15.25 C 43.144531 -15.195312 43.128906 -15.144531 43.109375 -15.09375 C 43.046875 -14.945312 42.992188 -14.800781 42.953125 -14.65625 C 42.910156 -14.519531 42.921875 -14.382812 42.984375 -14.25 C 43.117188 -14.144531 43.273438 -14.085938 43.453125 -14.078125 C 43.640625 -14.066406 43.8125 -14.0625 43.96875 -14.0625 C 44.09375 -14.082031 44.207031 -14.09375 44.3125 -14.09375 C 45.070312 -14.070312 45.832031 -14.070312 46.59375 -14.09375 C 47.632812 -14.09375 48.675781 -14.082031 49.71875 -14.0625 C 55.40625 -13.96875 61.097656 -13.847656 66.796875 -13.703125 C 68.671875 -13.660156 70.523438 -13.582031 72.359375 -13.46875 C 72.523438 -13.445312 72.703125 -13.4375 72.890625 -13.4375 C 72.984375 -13.4375 73.09375 -13.4375 73.21875 -13.4375 C 73.445312 -13.4375 73.671875 -13.414062 73.890625 -13.375 C 74.117188 -13.332031 74.335938 -13.253906 74.546875 -13.140625 C 74.578125 -13.109375 74.601562 -13.0625 74.625 -13 C 74.644531 -12.945312 74.644531 -12.898438 74.625 -12.859375 C 74.625 -12.796875 74.597656 -12.738281 74.546875 -12.6875 C 74.492188 -12.644531 74.453125 -12.613281 74.421875 -12.59375 C 74.253906 -12.53125 74.078125 -12.5 73.890625 -12.5 Z M 33.140625 -12.34375 C 33.203125 -12.46875 33.207031 -12.582031 33.15625 -12.6875 C 33.113281 -12.789062 33.03125 -12.84375 32.90625 -12.84375 C 32.726562 -12.851562 32.535156 -12.851562 32.328125 -12.84375 C 32.234375 -12.84375 32.132812 -12.84375 32.03125 -12.84375 C 25.15625 -12.757812 18.269531 -12.285156 11.375 -11.421875 C 8.738281 -11.097656 6.117188 -10.675781 3.515625 -10.15625 C 0.910156 -9.632812 -1.671875 -8.984375 -4.234375 -8.203125 C -5.609375 -7.785156 -6.957031 -7.304688 -8.28125 -6.765625 C -9.613281 -6.222656 -10.914062 -5.578125 -12.1875 -4.828125 C -13.507812 -4.085938 -14.710938 -3.1875 -15.796875 -2.125 C -17.054688 -0.820312 -17.765625 0.5625 -17.921875 2.03125 C -18.085938 3.507812 -17.695312 4.929688 -16.75 6.296875 C -16.050781 7.253906 -15.210938 8.078125 -14.234375 8.765625 C -10.679688 11.285156 -6.445312 12.570312 -1.53125 12.625 C -0.269531 12.625 1.171875 12.457031 2.796875 12.125 C 4.421875 11.789062 5.988281 11.296875 7.5 10.640625 C 9.019531 9.992188 10.488281 9.226562 11.90625 8.34375 C 15.414062 6.175781 18.664062 3.660156 21.65625 0.796875 C 23.726562 -1.148438 25.675781 -3.195312 27.5 -5.34375 C 29.332031 -7.488281 31.113281 -9.671875 32.84375 -11.890625 C 32.9375 -12.054688 33.035156 -12.207031 33.140625 -12.34375 Z M 41.515625 -15.171875 C 42.828125 -18.179688 44.1875 -21.179688 45.59375 -24.171875 C 45.65625 -24.335938 45.863281 -24.804688 46.21875 -25.578125 C 46.582031 -26.359375 47 -27.265625 47.46875 -28.296875 C 47.945312 -29.335938 48.378906 -30.316406 48.765625 -31.234375 C 49.160156 -32.160156 49.4375 -32.851562 49.59375 -33.3125 C 49.75 -33.769531 49.703125 -33.8125 49.453125 -33.4375 C 49.390625 -33.351562 49.335938 -33.273438 49.296875 -33.203125 C 49.078125 -32.878906 48.867188 -32.554688 48.671875 -32.234375 C 47.003906 -29.648438 45.328125 -27.066406 43.640625 -24.484375 C 41.953125 -21.910156 40.207031 -19.367188 38.40625 -16.859375 C 38.226562 -16.617188 38.050781 -16.367188 37.875 -16.109375 C 37.53125 -15.628906 37.1875 -15.148438 36.84375 -14.671875 C 36.707031 -14.472656 36.664062 -14.304688 36.71875 -14.171875 C 36.78125 -14.035156 36.921875 -13.96875 37.140625 -13.96875 C 37.503906 -13.96875 37.867188 -13.976562 38.234375 -14 C 38.796875 -14.039062 39.351562 -14.0625 39.90625 -14.0625 C 40.332031 -14.050781 40.664062 -14.144531 40.90625 -14.34375 C 41.144531 -14.539062 41.347656 -14.816406 41.515625 -15.171875 Z M 41.515625 -15.171875 "/></g></g></g><g fill="#ffffff" fill-opacity="1"><g transform="translate(202.041927, 52.543145)"><g><path d="M 2.984375 -11.59375 C 2.679688 -11.289062 2.410156 -11.144531 2.171875 -11.15625 C 1.941406 -11.175781 1.878906 -11.4375 1.984375 -11.9375 C 2.128906 -12.675781 2.460938 -13.347656 2.984375 -13.953125 C 3.078125 -14.046875 3.195312 -14.101562 3.34375 -14.125 C 3.488281 -14.144531 3.628906 -14.125 3.765625 -14.0625 C 3.828125 -14.019531 3.882812 -13.960938 3.9375 -13.890625 C 4 -13.828125 4.03125 -13.765625 4.03125 -13.703125 C 3.914062 -12.878906 3.566406 -12.175781 2.984375 -11.59375 Z M 6.34375 -7.0625 C 6.40625 -7.0625 6.460938 -7.046875 6.515625 -7.015625 C 6.566406 -6.984375 6.601562 -6.945312 6.625 -6.90625 C 6.625 -6.863281 6.613281 -6.8125 6.59375 -6.75 C 6.570312 -6.695312 6.539062 -6.648438 6.5 -6.609375 C 6.28125 -6.421875 6.035156 -6.25 5.765625 -6.09375 C 5.316406 -5.832031 4.867188 -5.5625 4.421875 -5.28125 C 3.242188 -4.539062 2.050781 -3.851562 0.84375 -3.21875 C -0.0820312 -2.71875 -0.722656 -1.992188 -1.078125 -1.046875 C -1.878906 0.847656 -2.722656 2.710938 -3.609375 4.546875 C -3.992188 5.421875 -4.414062 6.265625 -4.875 7.078125 C -5.332031 7.898438 -5.863281 8.695312 -6.46875 9.46875 C -7.632812 10.96875 -9.117188 11.835938 -10.921875 12.078125 C -12.398438 12.253906 -13.832031 12.160156 -15.21875 11.796875 C -16.320312 11.492188 -17.347656 11.050781 -18.296875 10.46875 C -18.648438 10.238281 -18.976562 9.976562 -19.28125 9.6875 C -20.664062 8.4375 -20.503906 7.125 -18.796875 5.75 C -18.234375 5.3125 -17.640625 4.921875 -17.015625 4.578125 C -16.035156 4.023438 -15.046875 3.503906 -14.046875 3.015625 C -12.765625 2.398438 -11.492188 1.789062 -10.234375 1.1875 C -8.117188 0.207031 -6.03125 -0.785156 -3.96875 -1.796875 C -3.5625 -1.992188 -3.234375 -2.148438 -2.984375 -2.265625 C -2.617188 -2.429688 -2.351562 -2.566406 -2.1875 -2.671875 C -2.03125 -2.785156 -1.898438 -2.921875 -1.796875 -3.078125 C -1.703125 -3.242188 -1.585938 -3.5 -1.453125 -3.84375 C -1.347656 -4.125 -1.179688 -4.492188 -0.953125 -4.953125 C -0.617188 -5.710938 -0.300781 -6.472656 0 -7.234375 C 0.21875 -7.773438 0.4375 -8.304688 0.65625 -8.828125 C 0.800781 -9.171875 0.984375 -9.472656 1.203125 -9.734375 C 1.421875 -9.972656 1.679688 -10.015625 1.984375 -9.859375 C 2.203125 -9.742188 2.285156 -9.5625 2.234375 -9.3125 C 2.148438 -9.070312 2 -8.660156 1.78125 -8.078125 C 1.59375 -7.578125 1.40625 -7.054688 1.21875 -6.515625 C 1.03125 -5.972656 0.878906 -5.503906 0.765625 -5.109375 C 0.660156 -4.722656 0.625 -4.492188 0.65625 -4.421875 C 0.695312 -4.359375 0.820312 -4.367188 1.03125 -4.453125 C 1.25 -4.546875 1.597656 -4.722656 2.078125 -4.984375 C 2.097656 -4.984375 2.109375 -4.984375 2.109375 -4.984375 C 2.867188 -5.410156 3.617188 -5.832031 4.359375 -6.25 C 4.640625 -6.40625 4.921875 -6.570312 5.203125 -6.75 C 5.222656 -6.75 5.234375 -6.75 5.234375 -6.75 C 5.421875 -6.851562 5.601562 -6.941406 5.78125 -7.015625 C 5.957031 -7.085938 6.144531 -7.101562 6.34375 -7.0625 Z M -2.984375 -0.3125 C -2.859375 -0.539062 -2.859375 -0.753906 -2.984375 -0.953125 C -3.222656 -0.972656 -3.441406 -0.910156 -3.640625 -0.765625 C -3.679688 -0.742188 -3.726562 -0.726562 -3.78125 -0.71875 C -4.632812 -0.3125 -5.476562 0.09375 -6.3125 0.5 C -8.519531 1.53125 -10.71875 2.570312 -12.90625 3.625 C -14.113281 4.226562 -15.316406 4.867188 -16.515625 5.546875 C -17.015625 5.847656 -17.484375 6.203125 -17.921875 6.609375 C -18.773438 7.359375 -18.875 8.085938 -18.21875 8.796875 C -18.082031 8.972656 -17.9375 9.125 -17.78125 9.25 C -16.957031 9.863281 -16.070312 10.34375 -15.125 10.6875 C -14.1875 11.03125 -13.175781 11.207031 -12.09375 11.21875 C -10.507812 11.21875 -9.175781 10.582031 -8.09375 9.3125 C -7.34375 8.445312 -6.71875 7.515625 -6.21875 6.515625 C -5.445312 4.910156 -4.6875 3.296875 -3.9375 1.671875 C -3.613281 1.003906 -3.296875 0.34375 -2.984375 -0.3125 Z M -2.984375 -0.3125 "/></g></g></g><g fill="#ffffff" fill-opacity="1"><g transform="translate(207.605609, 52.543145)"><g><path d="M 2.984375 -11.59375 C 2.679688 -11.289062 2.410156 -11.144531 2.171875 -11.15625 C 1.941406 -11.175781 1.878906 -11.4375 1.984375 -11.9375 C 2.128906 -12.675781 2.460938 -13.347656 2.984375 -13.953125 C 3.078125 -14.046875 3.195312 -14.101562 3.34375 -14.125 C 3.488281 -14.144531 3.628906 -14.125 3.765625 -14.0625 C 3.828125 -14.019531 3.882812 -13.960938 3.9375 -13.890625 C 4 -13.828125 4.03125 -13.765625 4.03125 -13.703125 C 3.914062 -12.878906 3.566406 -12.175781 2.984375 -11.59375 Z M 6.34375 -7.0625 C 6.40625 -7.0625 6.460938 -7.046875 6.515625 -7.015625 C 6.566406 -6.984375 6.601562 -6.945312 6.625 -6.90625 C 6.625 -6.863281 6.613281 -6.8125 6.59375 -6.75 C 6.570312 -6.695312 6.539062 -6.648438 6.5 -6.609375 C 6.28125 -6.421875 6.035156 -6.25 5.765625 -6.09375 C 5.316406 -5.832031 4.867188 -5.5625 4.421875 -5.28125 C 3.242188 -4.539062 2.050781 -3.851562 0.84375 -3.21875 C -0.0820312 -2.71875 -0.722656 -1.992188 -1.078125 -1.046875 C -1.878906 0.847656 -2.722656 2.710938 -3.609375 4.546875 C -3.992188 5.421875 -4.414062 6.265625 -4.875 7.078125 C -5.332031 7.898438 -5.863281 8.695312 -6.46875 9.46875 C -7.632812 10.96875 -9.117188 11.835938 -10.921875 12.078125 C -12.398438 12.253906 -13.832031 12.160156 -15.21875 11.796875 C -16.320312 11.492188 -17.347656 11.050781 -18.296875 10.46875 C -18.648438 10.238281 -18.976562 9.976562 -19.28125 9.6875 C -20.664062 8.4375 -20.503906 7.125 -18.796875 5.75 C -18.234375 5.3125 -17.640625 4.921875 -17.015625 4.578125 C -16.035156 4.023438 -15.046875 3.503906 -14.046875 3.015625 C -12.765625 2.398438 -11.492188 1.789062 -10.234375 1.1875 C -8.117188 0.207031 -6.03125 -0.785156 -3.96875 -1.796875 C -3.5625 -1.992188 -3.234375 -2.148438 -2.984375 -2.265625 C -2.617188 -2.429688 -2.351562 -2.566406 -2.1875 -2.671875 C -2.03125 -2.785156 -1.898438 -2.921875 -1.796875 -3.078125 C -1.703125 -3.242188 -1.585938 -3.5 -1.453125 -3.84375 C -1.347656 -4.125 -1.179688 -4.492188 -0.953125 -4.953125 C -0.617188 -5.710938 -0.300781 -6.472656 0 -7.234375 C 0.21875 -7.773438 0.4375 -8.304688 0.65625 -8.828125 C 0.800781 -9.171875 0.984375 -9.472656 1.203125 -9.734375 C 1.421875 -9.972656 1.679688 -10.015625 1.984375 -9.859375 C 2.203125 -9.742188 2.285156 -9.5625 2.234375 -9.3125 C 2.148438 -9.070312 2 -8.660156 1.78125 -8.078125 C 1.59375 -7.578125 1.40625 -7.054688 1.21875 -6.515625 C 1.03125 -5.972656 0.878906 -5.503906 0.765625 -5.109375 C 0.660156 -4.722656 0.625 -4.492188 0.65625 -4.421875 C 0.695312 -4.359375 0.820312 -4.367188 1.03125 -4.453125 C 1.25 -4.546875 1.597656 -4.722656 2.078125 -4.984375 C 2.097656 -4.984375 2.109375 -4.984375 2.109375 -4.984375 C 2.867188 -5.410156 3.617188 -5.832031 4.359375 -6.25 C 4.640625 -6.40625 4.921875 -6.570312 5.203125 -6.75 C 5.222656 -6.75 5.234375 -6.75 5.234375 -6.75 C 5.421875 -6.851562 5.601562 -6.941406 5.78125 -7.015625 C 5.957031 -7.085938 6.144531 -7.101562 6.34375 -7.0625 Z M -2.984375 -0.3125 C -2.859375 -0.539062 -2.859375 -0.753906 -2.984375 -0.953125 C -3.222656 -0.972656 -3.441406 -0.910156 -3.640625 -0.765625 C -3.679688 -0.742188 -3.726562 -0.726562 -3.78125 -0.71875 C -4.632812 -0.3125 -5.476562 0.09375 -6.3125 0.5 C -8.519531 1.53125 -10.71875 2.570312 -12.90625 3.625 C -14.113281 4.226562 -15.316406 4.867188 -16.515625 5.546875 C -17.015625 5.847656 -17.484375 6.203125 -17.921875 6.609375 C -18.773438 7.359375 -18.875 8.085938 -18.21875 8.796875 C -18.082031 8.972656 -17.9375 9.125 -17.78125 9.25 C -16.957031 9.863281 -16.070312 10.34375 -15.125 10.6875 C -14.1875 11.03125 -13.175781 11.207031 -12.09375 11.21875 C -10.507812 11.21875 -9.175781 10.582031 -8.09375 9.3125 C -7.34375 8.445312 -6.71875 7.515625 -6.21875 6.515625 C -5.445312 4.910156 -4.6875 3.296875 -3.9375 1.671875 C -3.613281 1.003906 -3.296875 0.34375 -2.984375 -0.3125 Z M -2.984375 -0.3125 "/></g></g></g><g fill="#ffffff" fill-opacity="1"><g transform="translate(213.169291, 52.543145)"><g><path d="M 9.90625 -6.96875 C 10.125 -6.84375 10.144531 -6.546875 9.96875 -6.078125 C 9.707031 -5.722656 9.425781 -5.394531 9.125 -5.09375 C 8.820312 -4.800781 8.492188 -4.535156 8.140625 -4.296875 C 8.109375 -4.296875 8.09375 -4.285156 8.09375 -4.265625 C 7.851562 -4.097656 7.601562 -3.957031 7.34375 -3.84375 C 5.164062 -3.0625 4.050781 -3.519531 4 -5.21875 C 3.125 -4.457031 2.535156 -3.988281 2.234375 -3.8125 C 1.515625 -3.382812 0.734375 -3.191406 -0.109375 -3.234375 C -0.734375 -3.273438 -1.15625 -3.46875 -1.375 -3.8125 C -1.59375 -4.15625 -1.570312 -4.617188 -1.3125 -5.203125 C -0.914062 -6.117188 -0.347656 -6.9375 0.390625 -7.65625 C 1.265625 -8.457031 2.226562 -9.097656 3.28125 -9.578125 C 3.84375 -9.867188 4.4375 -9.976562 5.0625 -9.90625 C 5.675781 -9.875 6.050781 -9.523438 6.1875 -8.859375 C 6.238281 -8.660156 6.1875 -8.484375 6.03125 -8.328125 C 5.832031 -8.140625 5.597656 -8.097656 5.328125 -8.203125 C 5.316406 -8.203125 5.289062 -8.207031 5.25 -8.21875 C 5.21875 -8.226562 5.195312 -8.242188 5.1875 -8.265625 C 4.914062 -8.628906 4.644531 -8.78125 4.375 -8.71875 C 4.113281 -8.65625 3.832031 -8.535156 3.53125 -8.359375 C 2.125 -7.535156 1.078125 -6.390625 0.390625 -4.921875 C 0.359375 -4.859375 0.335938 -4.785156 0.328125 -4.703125 C 0.316406 -4.628906 0.335938 -4.570312 0.390625 -4.53125 C 0.554688 -4.46875 0.738281 -4.472656 0.9375 -4.546875 C 1.144531 -4.628906 1.347656 -4.742188 1.546875 -4.890625 C 1.742188 -5.046875 1.910156 -5.175781 2.046875 -5.28125 C 2.066406 -5.300781 2.078125 -5.3125 2.078125 -5.3125 C 2.742188 -5.875 3.394531 -6.445312 4.03125 -7.03125 C 4.3125 -7.332031 4.664062 -7.5 5.09375 -7.53125 C 5.6875 -7.53125 5.9375 -7.265625 5.84375 -6.734375 C 5.78125 -6.523438 5.71875 -6.320312 5.65625 -6.125 C 5.425781 -5.257812 5.421875 -4.75 5.640625 -4.59375 C 5.859375 -4.445312 6.191406 -4.445312 6.640625 -4.59375 C 7.085938 -4.75 7.535156 -5.035156 7.984375 -5.453125 C 8.441406 -5.878906 8.820312 -6.269531 9.125 -6.625 C 9.4375 -6.976562 9.695312 -7.09375 9.90625 -6.96875 Z M 9.90625 -6.96875 "/></g></g></g><g fill="#ffffff" fill-opacity="1"><g transform="translate(222.232484, 52.543145)"><g><path d="M 6.5625 -8.390625 C 6.476562 -7.765625 6.179688 -7.351562 5.671875 -7.15625 C 5.160156 -6.96875 4.992188 -7.21875 5.171875 -7.90625 C 5.347656 -8.601562 5.035156 -8.78125 4.234375 -8.4375 C 3.429688 -8.101562 2.769531 -7.675781 2.25 -7.15625 C 1.445312 -6.332031 0.738281 -5.445312 0.125 -4.5 C 0.0625 -4.414062 0.0078125 -4.347656 -0.03125 -4.296875 C -0.207031 -4.023438 -0.390625 -3.773438 -0.578125 -3.546875 C -0.691406 -3.378906 -0.828125 -3.273438 -0.984375 -3.234375 C -1.148438 -3.191406 -1.316406 -3.1875 -1.484375 -3.21875 C -1.628906 -3.226562 -1.742188 -3.285156 -1.828125 -3.390625 C -1.910156 -3.492188 -1.921875 -3.613281 -1.859375 -3.75 C -1.753906 -3.988281 -1.632812 -4.238281 -1.5 -4.5 C -0.6875 -6.019531 0.144531 -7.546875 1 -9.078125 C 1.019531 -9.097656 1.03125 -9.117188 1.03125 -9.140625 C 1.144531 -9.367188 1.285156 -9.585938 1.453125 -9.796875 C 1.628906 -9.992188 1.835938 -10.070312 2.078125 -10.03125 C 2.316406 -10 2.476562 -9.859375 2.5625 -9.609375 C 2.65625 -9.296875 2.738281 -9.117188 2.8125 -9.078125 C 2.882812 -9.035156 3.050781 -9.0625 3.3125 -9.15625 C 3.851562 -9.363281 4.382812 -9.503906 4.90625 -9.578125 C 5.425781 -9.660156 5.851562 -9.640625 6.1875 -9.515625 C 6.519531 -9.398438 6.644531 -9.023438 6.5625 -8.390625 Z M 6.5625 -8.390625 "/></g></g></g><g fill="#ffffff" fill-opacity="1"><g transform="translate(229.067468, 52.543145)"><g><path d="M 9.90625 -6.96875 C 10.125 -6.84375 10.144531 -6.546875 9.96875 -6.078125 C 9.707031 -5.722656 9.425781 -5.394531 9.125 -5.09375 C 8.820312 -4.800781 8.492188 -4.535156 8.140625 -4.296875 C 8.109375 -4.296875 8.09375 -4.285156 8.09375 -4.265625 C 7.851562 -4.097656 7.601562 -3.957031 7.34375 -3.84375 C 5.164062 -3.0625 4.050781 -3.519531 4 -5.21875 C 3.125 -4.457031 2.535156 -3.988281 2.234375 -3.8125 C 1.515625 -3.382812 0.734375 -3.191406 -0.109375 -3.234375 C -0.734375 -3.273438 -1.15625 -3.46875 -1.375 -3.8125 C -1.59375 -4.15625 -1.570312 -4.617188 -1.3125 -5.203125 C -0.914062 -6.117188 -0.347656 -6.9375 0.390625 -7.65625 C 1.265625 -8.457031 2.226562 -9.097656 3.28125 -9.578125 C 3.84375 -9.867188 4.4375 -9.976562 5.0625 -9.90625 C 5.675781 -9.875 6.050781 -9.523438 6.1875 -8.859375 C 6.238281 -8.660156 6.1875 -8.484375 6.03125 -8.328125 C 5.832031 -8.140625 5.597656 -8.097656 5.328125 -8.203125 C 5.316406 -8.203125 5.289062 -8.207031 5.25 -8.21875 C 5.21875 -8.226562 5.195312 -8.242188 5.1875 -8.265625 C 4.914062 -8.628906 4.644531 -8.78125 4.375 -8.71875 C 4.113281 -8.65625 3.832031 -8.535156 3.53125 -8.359375 C 2.125 -7.535156 1.078125 -6.390625 0.390625 -4.921875 C 0.359375 -4.859375 0.335938 -4.785156 0.328125 -4.703125 C 0.316406 -4.628906 0.335938 -4.570312 0.390625 -4.53125 C 0.554688 -4.46875 0.738281 -4.472656 0.9375 -4.546875 C 1.144531 -4.628906 1.347656 -4.742188 1.546875 -4.890625 C 1.742188 -5.046875 1.910156 -5.175781 2.046875 -5.28125 C 2.066406 -5.300781 2.078125 -5.3125 2.078125 -5.3125 C 2.742188 -5.875 3.394531 -6.445312 4.03125 -7.03125 C 4.3125 -7.332031 4.664062 -7.5 5.09375 -7.53125 C 5.6875 -7.53125 5.9375 -7.265625 5.84375 -6.734375 C 5.78125 -6.523438 5.71875 -6.320312 5.65625 -6.125 C 5.425781 -5.257812 5.421875 -4.75 5.640625 -4.59375 C 5.859375 -4.445312 6.191406 -4.445312 6.640625 -4.59375 C 7.085938 -4.75 7.535156 -5.035156 7.984375 -5.453125 C 8.441406 -5.878906 8.820312 -6.269531 9.125 -6.625 C 9.4375 -6.976562 9.695312 -7.09375 9.90625 -6.96875 Z M 9.90625 -6.96875 "/></g></g></g><g fill="#ffffff" fill-opacity="1"><g transform="translate(238.130661, 52.543145)"><g><path d="M 10.890625 -7.171875 C 10.679688 -7.097656 10.46875 -7.03125 10.25 -6.96875 C 10.195312 -6.945312 10.148438 -6.925781 10.109375 -6.90625 C 9.890625 -6.820312 9.671875 -6.742188 9.453125 -6.671875 C 8.828125 -6.472656 8.191406 -6.257812 7.546875 -6.03125 C 7.066406 -5.894531 6.6875 -5.59375 6.40625 -5.125 C 5.96875 -4.40625 5.410156 -3.84375 4.734375 -3.4375 C 4.066406 -3.039062 3.382812 -2.757812 2.6875 -2.59375 C 2 -2.425781 1.390625 -2.320312 0.859375 -2.28125 C 0.328125 -2.238281 -0.015625 -2.226562 -0.171875 -2.25 C -0.191406 -2.25 -0.21875 -2.25 -0.25 -2.25 C -0.46875 -2.101562 -0.6875 -1.828125 -0.90625 -1.421875 C -1.125 -1.023438 -1.316406 -0.671875 -1.484375 -0.359375 C -1.515625 -0.273438 -1.539062 -0.203125 -1.5625 -0.140625 C -2.457031 1.671875 -3.347656 3.476562 -4.234375 5.28125 C -4.734375 6.28125 -5.238281 7.28125 -5.75 8.28125 C -5.90625 8.632812 -6.09375 8.976562 -6.3125 9.3125 C -6.519531 9.5625 -6.769531 9.613281 -7.0625 9.46875 C -7.269531 9.320312 -7.320312 9.117188 -7.21875 8.859375 C -7.113281 8.597656 -7.003906 8.332031 -6.890625 8.0625 C -5.328125 4.351562 -3.664062 0.6875 -1.90625 -2.9375 C -1.351562 -4.0625 -0.835938 -5.207031 -0.359375 -6.375 C -0.140625 -6.90625 0.0859375 -7.457031 0.328125 -8.03125 C 0.347656 -8.082031 0.378906 -8.140625 0.421875 -8.203125 C 0.546875 -8.503906 0.6875 -8.796875 0.84375 -9.078125 C 0.914062 -9.179688 1.050781 -9.242188 1.25 -9.265625 C 1.457031 -9.296875 1.632812 -9.269531 1.78125 -9.1875 C 1.957031 -9.070312 2.046875 -8.894531 2.046875 -8.65625 C 2.046875 -8.539062 2.023438 -8.414062 1.984375 -8.28125 C 1.941406 -8.1875 1.914062 -8.085938 1.90625 -7.984375 C 1.90625 -7.878906 1.941406 -7.78125 2.015625 -7.6875 C 2.160156 -7.664062 2.285156 -7.679688 2.390625 -7.734375 C 2.503906 -7.796875 2.609375 -7.867188 2.703125 -7.953125 C 2.804688 -8.035156 2.925781 -8.097656 3.0625 -8.140625 C 3.144531 -8.179688 3.226562 -8.222656 3.3125 -8.265625 C 3.75 -8.460938 4.179688 -8.632812 4.609375 -8.78125 C 5.160156 -8.945312 5.710938 -8.90625 6.265625 -8.65625 C 6.503906 -8.507812 6.679688 -8.332031 6.796875 -8.125 C 6.910156 -7.914062 7 -7.691406 7.0625 -7.453125 C 7.132812 -7.265625 7.300781 -7.164062 7.5625 -7.15625 C 7.832031 -7.15625 8.132812 -7.191406 8.46875 -7.265625 C 8.800781 -7.347656 9.101562 -7.425781 9.375 -7.5 C 9.601562 -7.570312 9.769531 -7.613281 9.875 -7.625 C 10.144531 -7.6875 10.421875 -7.707031 10.703125 -7.6875 C 10.785156 -7.6875 10.859375 -7.671875 10.921875 -7.640625 C 10.992188 -7.617188 11.03125 -7.546875 11.03125 -7.421875 C 11.03125 -7.378906 11.015625 -7.332031 10.984375 -7.28125 C 10.960938 -7.226562 10.929688 -7.191406 10.890625 -7.171875 Z M 5.140625 -6.28125 C 5.328125 -6.394531 5.4375 -6.585938 5.46875 -6.859375 C 5.507812 -7.140625 5.484375 -7.40625 5.390625 -7.65625 C 5.335938 -7.738281 5.273438 -7.796875 5.203125 -7.828125 C 5.128906 -7.859375 5.050781 -7.875 4.96875 -7.875 C 4.800781 -7.84375 4.640625 -7.789062 4.484375 -7.71875 C 2.796875 -6.875 1.429688 -5.671875 0.390625 -4.109375 C 0.191406 -3.742188 0.21875 -3.582031 0.46875 -3.625 C 0.71875 -3.664062 1.09375 -3.820312 1.59375 -4.09375 C 2.101562 -4.363281 2.625 -4.671875 3.15625 -5.015625 C 3.695312 -5.367188 4.160156 -5.671875 4.546875 -5.921875 C 4.890625 -6.140625 5.085938 -6.257812 5.140625 -6.28125 Z M 5.140625 -6.28125 "/></g></g></g><g fill="#ffffff" fill-opacity="1"><g transform="translate(248.205421, 52.543145)"><g><path d="M 0.34375 -2.421875 C -0.519531 -2.421875 -0.953125 -2.875 -0.953125 -3.78125 C -0.953125 -4.875 -0.238281 -6.816406 1.1875 -9.609375 C 1.238281 -9.734375 1.335938 -9.796875 1.484375 -9.796875 C 2.066406 -9.796875 2.359375 -9.566406 2.359375 -9.109375 C 2.359375 -8.941406 2.304688 -8.738281 2.203125 -8.5 C 2.160156 -8.4375 1.679688 -7.234375 0.765625 -4.890625 C 0.617188 -4.515625 0.546875 -4.234375 0.546875 -4.046875 C 0.546875 -3.847656 0.640625 -3.75 0.828125 -3.75 C 1.484375 -3.75 3.226562 -5.398438 6.0625 -8.703125 C 6.425781 -9.148438 6.785156 -9.375 7.140625 -9.375 C 7.660156 -9.375 7.921875 -9.1875 7.921875 -8.8125 C 7.921875 -8.664062 7.757812 -8.113281 7.4375 -7.15625 C 7 -5.851562 6.78125 -5.097656 6.78125 -4.890625 C 6.78125 -4.585938 6.878906 -4.4375 7.078125 -4.4375 C 7.578125 -4.4375 9.039062 -5.332031 11.46875 -7.125 C 11.601562 -7.238281 11.722656 -7.296875 11.828125 -7.296875 C 12.054688 -7.296875 12.171875 -7.109375 12.171875 -6.734375 C 12.171875 -6.628906 12.140625 -6.546875 12.078125 -6.484375 C 10.785156 -5.378906 9.691406 -4.539062 8.796875 -3.96875 C 7.972656 -3.4375 7.242188 -3.171875 6.609375 -3.171875 L 6.40625 -3.171875 C 5.46875 -3.367188 5 -4.101562 5 -5.375 C 4 -4.488281 3.164062 -3.773438 2.5 -3.234375 C 1.84375 -2.691406 1.125 -2.421875 0.34375 -2.421875 Z M 0.34375 -2.421875 "/></g></g></g></svg>